<svg width="24" height="24" xmlns="http://www.w3.org/2000/svg"><g id="Page-1" stroke="none" stroke-width="1" fill="none" fill-rule="evenodd"><g id="Group"><g id="Anthos-Config-Management-(1)" fill-rule="nonzero"><path d="M3.868 7.7v5.007c.095 4.787 3.44 8.908 8.143 10.034V3.94L3.868 7.7z" id="Path" fill="#4285F4"/><path d="M12.01 22.74c.292-.065.58-.146.862-.241 4.277-1.41 7.194-5.332 7.282-9.792V7.7l-8.143-3.758V22.74zM19.577 1.889h-.382L20.27.629 19.528 0l-2.183 2.586 2.554 2.14.637-.736-1.312-1.094h.353a3.434 3.434 0 012.943 1.619 3.36 3.36 0 01.12 3.33l.714.717c.04-.053.076-.108.108-.165a4.338 4.338 0 00-.09-4.341 4.434 4.434 0 00-3.825-2.129l.03-.038z" id="Path" fill="#AECBFA"/><path d="M3.75 19.4l-.802.561.978 1.385c-.117 0-.234 0-.352-.048-1.843-.466-2.956-2.322-2.486-4.145.14-.52.397-1 .754-1.405l-.51-.871a1.032 1.032 0 00-.146.145A4.335 4.335 0 00.18 19.238a4.394 4.394 0 003.158 3h.372l-1.36.968.567.794 2.75-1.937L3.75 19.4z" id="Path" fill="#4285F4"/></g></g></g></svg>