<svg width="33" height="31" xmlns="http://www.w3.org/2000/svg"><defs><linearGradient x1="18.321%" y1="53.96%" x2="56.302%" y2="90.618%" id="a"><stop stop-color="#129EAF" offset="0%"/><stop stop-color="#C8C9D6" stop-opacity="0" offset="100%"/></linearGradient></defs><g transform="translate(.5)" fill="none" fill-rule="evenodd"><circle fill="#78D9EC" fill-rule="nonzero" cx="16.565" cy="15.119" r="14.999"/><path d="M18.537 29.99c7.351-.966 13.026-7.256 13.026-14.87 0-4.056-1.609-7.735-4.224-10.435l-16.886 17.22 8.084 8.084z" fill-opacity=".5" fill="url(#a)"/><path d="M.434 9.243l8.871 2.231a.482.482 0 00.324-.032L31.57 1.044c.53-.25.237-1.051-.33-.901L.428 8.31c-.481.128-.477.812.006.933z" fill="#F1F1F1" fill-rule="nonzero"/><path d="M10.375 21.729L9.17 11.623a.482.482 0 01.263-.488L31.265.205c.487-.243.94.38.56.768L11.197 22.01a.482.482 0 01-.822-.28z" fill="#1A73E8" fill-rule="nonzero"/><path d="M10.385 21.51l2.98-7.428a.482.482 0 01.714-.222l2.805 1.86c.257.17.29.534.068.748l-5.785 5.568c-.374.36-.975-.045-.782-.527z" fill="#80868B" fill-rule="nonzero"/><path d="M24.823 21.412l-11.229-6.765a.482.482 0 01-.045-.795L31.222.253a.482.482 0 01.753.528l-6.444 20.364a.482.482 0 01-.708.267z" fill="#E2E2E2" fill-rule="nonzero"/></g></svg>