<svg width="24" height="24" xmlns="http://www.w3.org/2000/svg"><g fill="none" fill-rule="evenodd"><path d="M0 0h24v24H0z"/><path d="M5.588 10.842v4.482l3.153-2.127c.2.544.532 1.025.956 1.403l-3.254 2.195L11.2 19.72v-4.33a3.505 3.505 0 001.698-.013v4.34l2.516-1.546.784 1.331-4.15 2.436L3.89 17.15v-6.307h1.697zm9.71 2.373l2.83 1.908a1.992 1.992 0 11-.909 1.435l-2.884-1.945c.427-.376.76-.855.964-1.398zm3.897 2.793a.797.797 0 100 1.594.797.797 0 000-1.594zm-7.172-6.015a1.997 1.997 0 110 3.995 1.997 1.997 0 010-3.995zm.024-7.93l8.156 4.788v6.338h-1.698V8.66l-3.19 2.152a3.5 3.5 0 00-.944-1.41l3.266-2.204-4.74-2.914v4.322a3.502 3.502 0 00-1.698-.012V4.28L8.52 5.928l-.797-1.327 4.324-2.538zm-7.29 3.14A1.992 1.992 0 016.736 7.44l2.927 1.974a3.5 3.5 0 00-.937 1.416L5.83 8.875a1.992 1.992 0 11-1.07-3.672zm0 1.195a.797.797 0 100 1.594.797.797 0 000-1.594z" fill="#4285F4"/></g></svg>