<svg xmlns="http://www.w3.org/2000/svg" width="22" height="18"><g fill="none" fill-rule="evenodd"><path fill="#E44335" d="M11 7l5-7H6z"/><path d="M3.55 4.5c-.31 0-.598.082-.82.276-.21.184-.351.46-.417.827L.501 15.857c.01.265.121.503.296.678.184.184.437.297.762.3 0 0 1.026.032 1.779-1.132l2.2-3.416h10.924l2.201 3.417c.267.412.563.68.843.85.501.302.936.28.98.278a1.01 1.01 0 001.013-.975L19.687 5.601c-.03-.169-.104-.296-.386-.407-.408-.162-1.083-.285-2.214-.388C14.804 4.598 10.76 4.5 3.551 4.5z" stroke="#3C4043"/><path fill="#3C4043" d="M6 6h1v5H6z"/><path fill="#3C4043" d="M9 8v1H4V8zM7 6v1H6V6zM16 6v1h-1V6zM7 10v1H6v-1zM16 10v1h-1v-1z"/><path fill="#3C4043" d="M9 9H8V8h1zM18 9h-1V8h1zM5 9H4V8h1zM14 9h-1V8h1z"/></g></svg>