<svg height="24" viewBox="0 0 24 24" width="24" xmlns="http://www.w3.org/2000/svg"><g fill="none" fill-rule="evenodd"><path d="m0 0h24v24h-24z"/><g fill-rule="nonzero" transform="translate(5)"><path d="m7.34030769-.00002491c-.76522013-.00372821-1.46948207.4169387-1.82894648 1.09248388-.3594644.67554517-.31490642 1.49466672.11571571 2.12723334l.87876923-.87876923c-.02605997-.08888321-.04094385-.18066711-.04430769-.27323077.0040703-.48434868.39929276-.87407874.88365097-.87137088.48435822.00270785.87519845.39683246.87385307.88119637-.00134537.48436392-.39436902.87631125-.87873481.87632835-.09225922-.0008805-.184047-.01328426-.27323077-.03692307l-.87876923.864c.73562869.49707282 1.70646947.46905048 2.41220231-.06962579.70573283-.53867626.98881095-1.46775315.70335084-2.30843352-.28546011-.84068036-1.07573275-1.40529195-1.96355315-1.40288868z" fill="#d2e3fc"/><path d="m6.52061538 6.01846154c.00699752-.69374664-.20774176-1.37159833-.61292307-1.93476923l-1.18153846 1.14461538c.13633092.24097584.20759013.51328781.20676923.79015385.00485484.44882018-.17703483.87947074-.50215385 1.18892308l.62769231 1.52861538c.91491618-.60090797 1.4648116-1.62293582 1.46215384-2.71753846z" fill="#5e97f6"/><path d="m3.31569231 7.66523077c-.7087409.01568414-1.34798072-.42397007-1.58687909-1.09141837-.23889838-.66744829-.02383447-1.41288165.53388478-1.85049894s1.33291355-.46919516 1.92437892-.07839038l1.13723077-1.12984616c-.57172518-.47761786-1.29317854-.739014-2.03815384-.73846154-1.24183926-.01127363-2.38047593.68947156-2.9299742 1.80317865-.54949827 1.1137071-.4128141 2.44369007.35171981 3.42235229s2.02189722 1.43316722 3.23548516 1.16954599z" fill="#5e97f6"/><path d="m7.38461538 8.97969231c-.71773481.00046111-1.43161487.10493136-2.11938461.31015384l.90830769 2.21538465c.39629421-.097699.80291761-.1472872 1.21107692-.1476923 2.50389051.0000237 4.61430082 1.8679992 4.91835962 4.3533595.3040587 2.4853604-1.2937941 4.8070044-3.72383241 5.4106445-2.43003833.6036401-4.92854772-.7004363-5.82283326-3.0391797-.89428554-2.3387435.0967096-4.9771318 2.30953682-6.1488243l-.90830769-2.21538465c-3.35216042 1.63024765-4.94790217 5.51594925-3.70901085 9.03160495s4.91816412 5.5424808 8.551799 4.7109854c3.63363489-.8314954 6.06530249-4.256705 5.65196819-7.9612754-.4133344-3.7045704-3.5401355-6.50959845-7.26767942-6.51977649z" fill="#4285f4"/></g></g></svg>