<svg width="24" height="24" viewBox="0 0 24 24" fill="none" xmlns="http://www.w3.org/2000/svg"><path d="M11.797 16.739c-1.404 0-3.549-2.603-3.549-4.906V8.457l3.55-1.183V4.908L5.881 7.274v4.535c0 3.203 2.87 7.343 5.915 7.343V16.74Z" fill="#669DF6"/><path d="m17.712 7.274-5.915-2.413v2.366l3.55 1.207v3.36c0 2.326-2.146 4.945-3.55 4.945v2.429c3.045 0 5.892-4.14 5.892-7.335l.023-4.559Z" fill="#AECBFA"/><path d="M12.696 12.992a1.271 1.271 0 0 1-1.798 0l-1.767-1.774.9-.9 1.766 1.783 4.78-4.78.899.9-4.78 4.771Z" fill="#4285F4"/><path fill-rule="evenodd" clip-rule="evenodd" d="M.1 13.584h2.367a9.598 9.598 0 0 1 16.279-8.407l.867.867 1.688-1.672-.828-.844-.394-.355-.206-.205A12.02 12.02 0 0 0 13.186.066a11.972 11.972 0 0 0-3.856.22h-.095c-.37.087-.726.19-1.08.308l-.26.087c-.3.11-.592.229-.884.363l-.34.157c-.26.127-.52.277-.788.426l-.363.213c-.242.158-.486.332-.733.52-.11.08-.221.15-.324.237-.336.28-.654.58-.954.9-.323.33-.615.67-.9 1.017l-.212.292c-.197.26-.394.536-.568.789l-.181.315c-.174.292-.332.592-.474.891a1.815 1.815 0 0 0-.118.253C.89 7.416.74 7.795.613 8.166a.245.245 0 0 0 0 .063 12.067 12.067 0 0 0-.512 5.355" fill="#2683FB"/><path fill-rule="evenodd" clip-rule="evenodd" d="m18.028 5.839 3.076-3.076a.119.119 0 0 1 .205.063l.789 3.841a.118.118 0 0 1-.083.14.118.118 0 0 1-.06.002L18.1 6.02a.119.119 0 0 1-.071-.181Z" fill="#2683FB"/><path fill-rule="evenodd" clip-rule="evenodd" d="M5.811 5.973 2.727 2.897a.118.118 0 0 1 .063-.205l3.85-.789a.118.118 0 0 1 .141.134l-.789 3.85a.118.118 0 0 1-.181.086Z" fill="#559CFC"/><path fill-rule="evenodd" clip-rule="evenodd" d="m4.478 21.369.505.362c.172.134.35.257.536.371.213.142.434.268.655.394l.394.205c.268.134.536.269.789.379l.213.079c1.92.748 4 .992 6.041.71V21.47a9.646 9.646 0 0 1-8.55-16.263c-.662-.67-1.237-1.246-1.616-1.64A11.91 11.91 0 0 0 .006 11.17v1.333c0 .157 0 .512.048.788.047.276.047.308.07.458.024.15.08.528.135.788 0 .142.07.284.102.434.032.15.142.529.229.789l.142.402c.1.268.21.531.331.789.055.118.11.244.174.363.134.276.283.536.441.788l.182.316c.181.284.386.56.599.836l.158.22c.28.35.577.684.891 1.002l.103.087c.283.276.583.536.883.789" fill="#559CFC"/><path fill-rule="evenodd" clip-rule="evenodd" d="M5.914 18.127 2.83 21.203a.118.118 0 0 1-.205-.055l-.789-3.85a.118.118 0 0 1 .134-.141l3.857.788a.119.119 0 0 1 .105.125.118.118 0 0 1-.018.057Z" fill="#A6CAFD"/><path fill-rule="evenodd" clip-rule="evenodd" d="M22.658 13.442a1.184 1.184 0 0 0-1.396.93 9.393 9.393 0 0 1-2.493 4.441 9.646 9.646 0 0 1-13.565 0 96.031 96.031 0 0 1-1.712 1.688 12.019 12.019 0 0 0 9.512 3.454h.142c.315 0 .639-.078.954-.141h.229c.308-.064.615-.142.923-.23l.236-.07c.3-.087.608-.197.9-.308l.228-.095c.292-.126.592-.26.884-.41l.189-.102c.3-.166.584-.331.867-.513l.15-.102a12.249 12.249 0 0 0 1.767-1.499c.134-.134.244-.276.37-.41.127-.134.34-.363.497-.56.158-.197.19-.26.284-.386.182-.245.355-.49.513-.742l.181-.3c.182-.315.355-.63.513-.962l.063-.142c.317-.674.563-1.38.734-2.106a1.19 1.19 0 0 0-.939-1.435h-.031Z" fill="#A6CAFD"/></svg>