<svg xmlns="http://www.w3.org/2000/svg" viewBox="0 0 156.06 216.53"><defs><style>.cls-1{fill:#fff;}.cls-2{fill:#494445;}.cls-3{fill:#8b211c;}</style></defs><g id="Layer_2" data-name="Layer 2"><g id="Boy-Left_Eye_Open_" data-name="Boy-Left Eye (Open)"><g id="Left_Eye_Open_" data-name="Left Eye (Open)"><g id="Right_Eye" data-name="Right Eye"><path class="cls-1" d="M32.42,99.73a53.67,53.67,0,0,0-14.07,10.45C-1.45,130,0,156.93.06,158.4c1.59,23.25,16.34,41.31,32.36,50.24,16.65,9.27,33.52,8,40.18,7.55,5.48-.4,13.4-1,22.51-5.14,24.09-11,31.71-35.7,32.55-38.58,1.35-4.64,5.57-19.9-.4-36.17C114.29,101,62.11,85,32.42,99.73Z"/><path d="M64.23,85.8,75.42,67.19,78.8,85.8A42.64,42.64,0,0,1,85,87.89,41,41,0,0,1,91,91l14-8.59-5.46,19.51a30,30,0,0,1,13,2.86q5.6-6,11.18-12l-7.28,18.72,13,3.39q2.85,12.09,5.72,24.18l20.82-1.56L130,161.11a54.55,54.55,0,0,0-3.41-18.67c-11.1-29.62-45.4-39-51.72-40.69a91.21,91.21,0,0,0-45.55-.31c-1.23.85-2.07,1.13-2.54.82q-1.29-.86,1.4-7.76A4.7,4.7,0,0,1,32,90.85c4.35-1.16,9.12-2.22,14.28-3.09A159,159,0,0,1,64.23,85.8Z"/></g><g id="Left_Pupil" data-name="Left Pupil"><ellipse class="cls-2" cx="63.34" cy="157.99" rx="35.5" ry="32"/><circle cx="61.54" cy="159.24" r="17.19"/><circle class="cls-1" cx="49.89" cy="147.59" r="11.65"/></g><path class="cls-3" d="M63.11,0c16.6.45,28.85,8.07,37,13.24a107.56,107.56,0,0,1,30.08,29.08,3.2,3.2,0,0,1,.59,1.33,3.28,3.28,0,0,1-.1,1.61l-.9,2.66a1.57,1.57,0,0,1-1,.91,1.54,1.54,0,0,1-1.61-.53c-7.33-5.52-13.74-9.72-18.48-12.65,0,0-7.7-4.78-17.24-9.32-17.06-8.12-24.88-8.08-28.26-7.93a40.67,40.67,0,0,0-6.82.9c-.5.15-1.24.38-2.11.71-1.53.57-1.9.83-2.22.67-.85-.43-.28-3.16,0-4.23C54.64,4.11,55.49,2.4,57.1,1.4a10.56,10.56,0,0,1,4-1.4C61.55,0,62.26,0,63.11,0Z"/></g></g></g></svg>