<svg xmlns="http://www.w3.org/2000/svg" viewBox="0 0 156.06 216.53"><defs><style>.cls-1{fill:#fff;}.cls-2{fill:#494445;}.cls-3{fill:#8b211c;}</style></defs><g id="Layer_2" data-name="Layer 2"><g id="Boy-Right_Eye_Open_" data-name="Boy-Right Eye (Open)"><g id="Right_Eye_Open_" data-name="Right Eye (Open)"><g id="Right_Eye" data-name="Right Eye"><path class="cls-1" d="M123.64,99.73a53.85,53.85,0,0,1,14.07,10.45C157.51,130,156.1,156.93,156,158.4c-1.59,23.25-16.34,41.31-32.36,50.24-16.65,9.27-33.52,8-40.18,7.55-5.48-.4-13.4-1-22.51-5.14-24.09-11-31.71-35.7-32.55-38.58-1.35-4.64-5.58-19.9.4-36.17C41.77,101,94,85,123.64,99.73Z"/><path d="M91.83,85.8,80.64,67.19,77.26,85.8A42.25,42.25,0,0,0,71,87.89,41,41,0,0,0,65,91L51,82.42l5.46,19.51a30,30,0,0,0-13,2.86l-11.19-12,7.29,18.72-13,3.39Q23.67,127,20.82,139.12L0,137.56l26.07,23.55a54.85,54.85,0,0,1,3.42-18.67c11.1-29.62,45.4-39,51.71-40.69a91.25,91.25,0,0,1,45.56-.31c1.23.85,2.07,1.13,2.53.82.87-.57.4-3.16-1.39-7.76a4.76,4.76,0,0,0-1.28-2.33A4.71,4.71,0,0,0,124,90.85c-4.35-1.16-9.12-2.22-14.28-3.09A159,159,0,0,0,91.83,85.8Z"/></g><g id="Left_Pupil" data-name="Left Pupil"><ellipse class="cls-2" cx="92.72" cy="157.99" rx="35.5" ry="32"/><circle cx="94.52" cy="159.24" r="17.19"/><circle class="cls-1" cx="106.17" cy="147.59" r="11.65"/></g><path class="cls-3" d="M93,0C76.35.47,64.09,8.09,56,13.26A107.56,107.56,0,0,0,25.9,42.34a3.07,3.07,0,0,0-.59,1.33,3.17,3.17,0,0,0,.1,1.61l.9,2.66a1.57,1.57,0,0,0,1,.91,1.55,1.55,0,0,0,1.62-.53c7.33-5.52,13.74-9.72,18.48-12.65,0,0,7.7-4.78,17.23-9.32,17.06-8.12,24.88-8.08,28.27-7.93a40.67,40.67,0,0,1,6.82.9c.5.15,1.24.38,2.11.71,1.52.57,1.89.83,2.22.67.84-.43.28-3.16,0-4.23C101.42,4.11,100.57,2.4,99,1.4A10.54,10.54,0,0,0,95,0C94.51,0,93.8,0,93,0Z"/></g></g></g></svg>