<svg width="24" height="24" xmlns="http://www.w3.org/2000/svg"><g fill="none" fill-rule="evenodd"><path d="M0 0h24v24H0z"/><g fill-rule="nonzero"><path d="M10.172 11.598L6.926 9.654c.04-.142.062-.289.065-.437a1.72 1.72 0 00-3.29-.705 1.704 1.704 0 00.577 2.082c.664.47 1.57.41 2.166-.142l3.247 1.944a.47.47 0 00.233.065.464.464 0 00.234-.863h.014zM5.29 9.971a.765.765 0 01-.766-.763c0-.421.343-.763.766-.763.424 0 .767.342.767.763a.758.758 0 01-.767.772v-.01z" fill="#669DF6"/><path d="M8.508 20.46C3.809 20.46 0 16.67 0 11.996c0-4.675 3.81-8.464 8.508-8.464 4.699 0 8.508 3.79 8.508 8.464-.005 4.673-3.811 8.46-8.508 8.464zm0-15.068c-3.666 0-6.638 2.957-6.638 6.604 0 3.647 2.972 6.604 6.638 6.604s6.638-2.957 6.638-6.604c-.004-3.646-2.974-6.6-6.638-6.604z" fill="#AECBFA"/><path d="M21.684 16.389a2.303 2.303 0 00-1.372.465l-7.183-4.107a2.795 2.795 0 000-1.502l7.183-4.097a2.32 2.32 0 002.865-.088 2.292 2.292 0 00.576-2.794 2.316 2.316 0 00-2.598-1.204A2.302 2.302 0 0019.377 5.3c0 .079.016.153.023.232l-7.264 4.14a3.048 3.048 0 00-1.987-.74 3.081 3.081 0 00-2.979 2.184 3.06 3.06 0 001.274 3.456c1.15.742 2.654.64 3.692-.25l7.245 4.137c0 .077-.023.151-.023.233-.001.933.563 1.775 1.43 2.133a2.327 2.327 0 002.527-.499c.664-.66.863-1.652.504-2.514a2.319 2.319 0 00-2.142-1.425l.007.003z" fill="#4285F4"/></g></g></svg>