<svg height="24" viewBox="0 0 25 24" width="25" xmlns="http://www.w3.org/2000/svg"><g fill="none" fill-rule="evenodd"><path d="m0 0h24v24h-24z"/><g fill-rule="nonzero" transform="translate(0 1)"><path d="m5.60016 0-5.6 3.2328v14.62l5.6 3.2336v-2.8112l-3.2008-1.8464v-11.7632l3.2008-1.8536z" fill="#5c85de"/><path d="m0 6.05664v8.988l2.4 1.384v-11.7632z" fill="#3367d6"/><path d="m0 6.05664 2.4-.5424v-.8488z" fill="#3367d6"/><path d="m18.40032 0v2.812l3.2 1.8536v11.7632l-3.2 1.8464v2.8112l5.5992-3.2336v-14.62z" fill="#5c85de"/><g fill="#3367d6"><path d="m21.6 16.42896 2.4-1.3848v-8.9872l-2.4-1.3912z"/><path d="m21.6 5.51448 2.4.5424-2.4-1.3912z"/><path d="m21.6 15.7428v.6864l2.4-1.3848z"/></g><path d="m5.37330714 2.4-1.69317143-3.2-1.69344285 3.2 1.69344285 3.2z" fill="#5c85de" transform="matrix(0 -1 1 0 9.6 8.76664)"/><path d="m3.1159931 3.95996934 1.72339977 3.11666668h3.38335711l-1.72631284-3.11666668z" fill="#3367d6" transform="matrix(0 -1 1 0 8.471069 13.874315)"/><path d="m2.57867724 7.07615146 1.72673119-3.11666666h-3.38308572l-1.72232283 3.11666666z" fill="#3367d6" transform="matrix(0 -1 1 0 4.554886 9.957162)"/><path d="m5.28767821 2.26141706-1.69317143-3.06141666-1.69344286 3.06141666 1.69344286 3.06141667z" fill="#5c85de" transform="matrix(0 -1 1 0 6.020954 14.92338)"/><path d="m2.88265935 3.82138586 1.72339978 3.11666667h3.38335714l-1.72631288-3.11666667z" fill="#3367d6" transform="matrix(0 -1 1 0 4.744319 19.883349)"/><path d="m2.5786771 6.93756826 1.72673119-3.11666666h-3.38308572l-1.72232282 3.11666666z" fill="#3367d6" transform="matrix(0 -1 1 0 1.061469 16.199531)"/><path d="m5.28767821 2.26141706-1.69317143-3.06141666-1.69344286 3.06141666 1.69344286 3.06141667z" fill="#5c85de" transform="matrix(0 -1 1 0 13.508954 14.92338)"/><path d="m2.88265935 3.82138586 1.72339978 3.11666667h3.38335714l-1.72631288-3.11666667z" fill="#3367d6" transform="matrix(0 -1 1 0 12.232319 19.883349)"/><path d="m2.5786771 6.93756826 1.72673119-3.11666666h-3.38308572l-1.72232282 3.11666666z" fill="#3367d6" transform="matrix(0 -1 1 0 8.549469 16.199531)"/></g></g></svg>