<svg xmlns="http://www.w3.org/2000/svg" width="24" height="25"><g fill="none" fill-rule="evenodd"><path fill="#FFF" opacity=".01" d="M0 .25h24v24H0z"/><g fill-rule="nonzero"><path d="M6.756 20.014V8.998h2.232v11.016H6.756zm-4.5 0V8.998h2.172v11.016H2.256zm9.06 0V8.998h2.16v11.016h-2.16zM17.88 8.998v5.124l-2.076.96V8.998h2.076z" fill="#4285F4"/><path d="M18.216 18.922l-.528.528 1.512 1.548.708-.732.228-.228v3.6l-.228.336h-.072a4.572 4.572 0 01-1.2-.54 5.64 5.64 0 01-2.472-4.2v-3.156l3.804-1.74.228.444v4.188l-.228.228-.768.732-.984-1.008z" fill="#AECBFA"/><path d="M19.896 14.338v4.8l.228-.228 1.548-1.596.516.528-2.064 2.136-.228.228v3.672h.072a4.5 4.5 0 001.2-.54 5.604 5.604 0 002.472-4.2v-3.06l-3.744-1.74zM15.6 21.25h-5.532v-1.956h5.004v.072c.079.651.257 1.287.528 1.884z" fill="#669DF6"/><path d="M8.724 5.674c0 .742.602 1.344 1.344 1.344v2.4H.3V7.45L10.068.598v3.72a1.356 1.356 0 00-1.344 1.356z" fill="#AECBFA"/><path d="M19.836 7.45v1.908h-9.768v-2.34a1.356 1.356 0 000-2.7V.55l9.768 6.9z" fill="#669DF6"/><path fill="#AECBFA" d="M10.068 19.282v1.968H.3v-1.944z"/></g></g></svg>