<svg xmlns="http://www.w3.org/2000/svg" viewBox="0 0 454.06 732.26"><path d="m225.68 0a64 64 0 0 0 -53.12 99.77l27.32-27.33a27.14 27.14 0 1 1 17.38 17.39l-27.32 27.32a64 64 0 1 0 35.74-117.15z" fill="#d2e3fc"/><path d="m200.2 186.54a99.65 99.65 0 0 0 -19.95-60l-35.5 35.5a50.8 50.8 0 0 1 -9.62 61.38l19.29 47.15a100 100 0 0 0 45.78-84.03z" fill="#5e97f6"/><path d="m101 237.44h-.91a50.93 50.93 0 1 1 28-93.47l35.15-35.15a100.06 100.06 0 1 0 -42.94 175.78z" fill="#5e97f6"/><path d="m227 278.21a227 227 0 0 0 -65.56 9.62l28.12 68.71a154.47 154.47 0 0 1 37.44-4.54 152.38 152.38 0 1 1 -71.87 17.82l-28-68.46a227 227 0 0 0 -127.13 203.87c0 125.39 101.64 227 227 227s227-101.64 227-227-101.59-227.02-227-227.02z" fill="#4285f4"/></svg>