<svg width="24" height="24" xmlns="http://www.w3.org/2000/svg"><g fill="none" fill-rule="evenodd"><path d="M0 0h24v24H0z"/><path fill="#4285F4" fill-rule="nonzero" d="M3.005 6.706l5.773-3.334V.028L.001 5.086l.48.587 2 1.078z"/><path d="M8.778 18.602L0 13.534v-3.183l8.778 5.067v3.184zm0 2.175L0 15.71v3.193l8.778 5.068v-3.194zm0-10.728L3.005 6.703 0 5.086v3.08l8.778 5.077" fill="#AECBFA"/><path d="M8.778 23.97l8.59-4.954v-3.202l-8.59 4.962m0-5.36l8.59-4.974h2.562v2.872h-2.053l-9.099 5.288v-3.186zm0-2.176l9.112-5.302h3.005l.02 1.673L24 6.526 20.915 3.44v1.627h-3.546l-1.517.885-1.3.754-3.353 1.94-2.423 1.403.002 3.191zM8.778 3.372l3.89 2.25 2.902-1.676L8.778.028z" fill="#669DF6"/></g></svg>
