<svg height="24" viewBox="0 0 24 24" width="24" xmlns="http://www.w3.org/2000/svg"><g fill="none" fill-rule="evenodd"><path d="m0 0h24v24h-24z"/><path d="m3.00519231 6.70557692 5.77326923-3.33403846v-3.34384615l-8.77788462 5.05788461.48115385.5873077 1.99846154 1.0776923z" fill="#4285f4" fill-rule="nonzero"/><path d="m8.77846154 18.6017308-8.77846154-5.0676923v-3.1834616l8.77788462 5.0671154zm0 2.1755769-8.77846154-5.0671154v3.1926923l8.77788462 5.0676923zm0-10.7278846-5.77326923-3.34615387-3.00519231-1.61769231v3.08019231l8.77788462 5.07692307" fill="#aecbfa"/><g fill="#669df6"><path d="m8.77846154 23.9705769 8.59038466-4.9546154v-3.201923l-8.59038466 4.9615384m0-5.3596154 8.59038466-4.9736538h2.5615384v2.8719231h-2.0532692l-9.09865386 5.2875zm0-2.1755769 9.11192306-5.30249998h3.0046154l.0201923 1.67307692 3.0848077-3.08538462-3.0853846-3.08538461v1.62634615h-3.5457692l-1.5167308.88557692-1.2998077.75346154-3.3530769 1.94019231-2.42307695 1.40365387z"/><path d="m8.77846154 3.37153846 3.89019226 2.25057692 2.9013462-1.67653846-6.79153846-3.91788461z"/></g></g></svg>