<svg height="24" viewBox="0 0 24 24" width="24" xmlns="http://www.w3.org/2000/svg"><g fill="none" fill-rule="evenodd"><path d="m0 0h24v24h-24z"/><path d="m9.6 17.2h4.8v4.8h-4.8z" fill="#4285f4" fill-rule="nonzero"/><path d="m20.4 9.8-5.2-5.184-1.216 1.208 6.416 6.4z" fill="#669df6"/><path d="m16.4 8.24-2.416-2.416 1.216-1.208 1.2 1.208z" fill="#4285f4"/><path d="m10.728 11.488-1.216-1.216 5.68-5.656 1.208 1.208z" fill="#aecbfa"/><path d="m10.728 11.488-3.432-3.416 1.216-1.216 3.432 3.416z" fill="#669df6"/><path d="m9.696 10.464-2.4-2.392 1.216-1.216 1.184 1.168z" fill="#4285f4"/><path d="m4.12 13.584 5.576-5.56-1.208-1.208-4.888 4.872v1.896z" fill="#aecbfa"/><g fill="#669df6"><path d="m24 1.664c-.0831937-.63715879-.5680192-1.14784159-1.2-1.264h-21.6c-.63198082.11615841-1.11680625.62684121-1.2 1.264v15.536c.08944921.6219419.5780581 1.1105508 1.2 1.2h21.6c.6219419-.0894492 1.1105508-.5780581 1.2-1.2zm-2.4 14.336h-19.2v-13.2h19.2z"/><path d="m7.2 23.2c0-.8.368-1.2 1.2-1.2h7.2c.8 0 1.2.368 1.2 1.2z"/></g></g></svg>