<svg xmlns="http://www.w3.org/2000/svg" xmlns:xlink="http://www.w3.org/1999/xlink" width="24px" height="24px" viewBox="0 0 24 24" version="1.1">
    <title>icon_drive_for-main-nav</title>
    <g id="icon_drive_for-main-nav" stroke="none" stroke-width="1" fill="none" fill-rule="evenodd">
        <g id="Group-16" transform="translate(0.000000, 1.000000)" fill-rule="nonzero">
            <path d="M1.8,18.2318182 L2.85,20.0454545 C3.06818182,20.4272727 3.38181818,20.7272727 3.75,20.9454545 L7.5,14.4545455 L0,14.4545455 C0,14.8772727 0.109090909,15.3 0.327272727,15.6818182 L1.8,18.2318182 Z" id="Path" fill="#0066DA"/>
            <path d="M11.9045455,6.81818182 L8.15454545,0.327272727 C7.78636364,0.545454545 7.47272727,0.845454545 7.25454545,1.22727273 L0.327272727,13.2272727 C0.109090909,13.6090909 9.3639382e-14,14.0318182 9.3639382e-14,14.4545455 L7.5,14.4545455 L11.9045455,6.81818182 Z" id="Path" fill="#00AC47"/>
            <path d="M11.9045455,6.81818182 L15.6545455,0.327272727 C15.2863636,0.109090909 14.8636364,-1.77001271e-13 14.4272727,-1.77001271e-13 L9.38181818,-1.77001271e-13 C8.94545455,-1.77001271e-13 8.52272727,0.122727273 8.15454545,0.327272727 L11.9045455,6.81818182 Z" id="Path" fill="#00832D"/>
            <path d="M16.3090909,14.4545455 L7.5,14.4545455 L3.75,20.9454545 C4.11818182,21.1636364 4.54090909,21.2727273 4.97727273,21.2727273 L18.8318182,21.2727273 C19.2681818,21.2727273 19.6909091,21.15 20.0590909,20.9454545 L16.3090909,14.4545455 Z" id="Path" fill="#2684FC"/>
            <path d="M20.0590909,20.9454545 C20.4272727,20.7272727 20.7409091,20.4272727 20.9590909,20.0454545 L21.3954545,19.2954545 L23.4818182,15.6818182 C23.7,15.3 23.8090909,14.8772727 23.8090909,14.4545455 L16.3227273,14.4545455 L20.0590909,20.9454545 Z" id="Path" fill="#EA4335"/>
            <path d="M20.0181818,7.22727273 L16.5545455,1.22727273 C16.3363636,0.845454545 16.0227273,0.545454545 15.6545455,0.327272727 L11.9045455,6.81818182 L16.3090909,14.4545455 L23.7954545,14.4545455 C23.7954545,14.0318182 23.6863636,13.6090909 23.4681818,13.2272727 L20.0181818,7.22727273 Z" id="Path" fill="#FFBA00"/>
        </g>
    </g>
</svg>