<svg version="1.1" id="Layer_1" xmlns="http://www.w3.org/2000/svg" xmlns:xlink="http://www.w3.org/1999/xlink" x="0" y="0" viewBox="0 0 131.2 132" xml:space="preserve" enable-background="new 0 0 131.2 132"><style>.st2{fill-rule:evenodd;clip-rule:evenodd;fill:#fff}</style><g id="Page-1"><g id="styleguide" transform="translate(-243 -875)"><g id="Group-10" transform="translate(154 835)"><g id="logo_lockup_firebase_horizontal" transform="translate(66 34)"><g id="_Group_"><g id="_Clip_Group_" transform="translate(23.833 5.958)"><g id="_Path_3"><linearGradient id="SVGID_1_" gradientUnits="userSpaceOnUse" x1="237.224" y1="78.28" x2="238.268" y2="77.521" gradientTransform="matrix(95.3333 0 0 -131.0572 -22601.285 10281.933)"><stop offset="0" stop-color="#fff" stop-opacity=".1"/><stop offset=".14" stop-color="#fff" stop-opacity=".08"/><stop offset=".61" stop-color="#fff" stop-opacity=".02"/><stop offset="1" stop-color="#fff" stop-opacity="0"/></linearGradient><path d="M100.4 29.8c-.2-1.1-1-2-2-2.3-1.1-.3-2.2-.1-3 .7L79.9 43.7 67.7 20.5c-.5-1-1.5-1.6-2.6-1.6s-2.1.6-2.6 1.6l-6.7 12.7L39.1 2.1C38.5 1 37.3.3 36 .6c-1.3.2-2.2 1.2-2.4 2.5L17.4 106.3l43.1 24.2c2.7 1.5 6 1.5 8.7 0l43.5-24.2-12.3-76.5z" fill="url(#SVGID_1_)"/></g><defs><filter id="Adobe_OpacityMaskFilter" filterUnits="userSpaceOnUse" x="11.5" y=".5" width="101.3" height="108.7"><feColorMatrix values="1 0 0 0 0 0 1 0 0 0 0 0 1 0 0 0 0 0 1 0"/></filter></defs><mask maskUnits="userSpaceOnUse" x="11.5" y=".5" width="101.3" height="108.7" id="mask-3_1_"><g filter="url(#Adobe_OpacityMaskFilter)"><path id="path-2_1_" class="st2" d="M100.4 29.8c-.2-1.1-1-2-2-2.3-1.1-.3-2.2-.1-3 .7L79.9 43.7 67.7 20.5c-.5-1-1.5-1.6-2.6-1.6s-2.1.6-2.6 1.6l-6.7 12.7L39.1 2.1C38.5 1 37.3.3 36 .6c-1.3.2-2.2 1.2-2.4 2.5L17.4 106.3l43.1 24.2c2.7 1.5 6 1.5 8.7 0l43.5-24.2-12.3-76.5z"/></g></mask><g id="_Group_2" mask="url(#mask-3_1_)"><g transform="translate(-5.958)"><path id="_Path_" d="M23.4 106.3L39.5 3c.2-1.3 1.2-2.3 2.4-2.5S44.4.9 45 2l16.7 31.1 6.7-12.7c.5-1 1.5-1.6 2.6-1.6s2.1.6 2.6 1.6l45 85.7H23.4z" fill="#ffa000"/><g id="_Group_3"><g opacity=".12" transform="translate(0 26.068)"><image width="87" height="111" id="Bitmap" xlink:href="40F7DCB2E3AD3F46.png" transform="translate(17.432 .5) scale(.7448)" overflow="visible"/></g><path fill="#f57c00" d="M79.1 40L61.8 7.1 23.4 80.2z" transform="translate(0 26.068)"/></g></g></g><defs><filter id="Adobe_OpacityMaskFilter_1_" filterUnits="userSpaceOnUse" x="14.5" y="20.6" width="104.3" height="114"><feColorMatrix values="1 0 0 0 0 0 1 0 0 0 0 0 1 0 0 0 0 0 1 0"/></filter></defs><mask maskUnits="userSpaceOnUse" x="14.5" y="20.6" width="104.3" height="114" id="mask-3_2_"><g filter="url(#Adobe_OpacityMaskFilter_1_)"><path id="path-2_2_" class="st2" d="M100.4 29.8c-.2-1.1-1-2-2-2.3-1.1-.3-2.2-.1-3 .7L79.9 43.7 67.7 20.5c-.5-1-1.5-1.6-2.6-1.6s-2.1.6-2.6 1.6l-6.7 12.7L39.1 2.1C38.5 1 37.3.3 36 .6c-1.3.2-2.2 1.2-2.4 2.5L17.4 106.3l43.1 24.2c2.7 1.5 6 1.5 8.7 0l43.5-24.2-12.3-76.5z"/></g></mask><g id="_Group_4" mask="url(#mask-3_2_)"><image width="140" height="153" xlink:href="40F7DCB2E3AD3F4A.png" transform="translate(14.453 20.61) scale(.7448)" overflow="visible" opacity=".2"/><path d="M115.7 86.2L103.4 9.7c-.2-1.1-1-2-2-2.3-1.1-.3-2.2-.1-3 .7l-78 78.1 43.1 24.2c2.7 1.5 6 1.5 8.7 0l43.5-24.2z" fill="#ffca28" transform="translate(-2.98 20.11)"/></g><defs><filter id="Adobe_OpacityMaskFilter_2_" filterUnits="userSpaceOnUse" x="17.4" y=".5" width="95.4" height="106"><feColorMatrix values="1 0 0 0 0 0 1 0 0 0 0 0 1 0 0 0 0 0 1 0"/></filter></defs><mask maskUnits="userSpaceOnUse" x="17.4" y=".5" width="95.4" height="106" id="mask-3_3_"><g filter="url(#Adobe_OpacityMaskFilter_2_)"><path id="path-2_3_" class="st2" d="M100.4 29.8c-.2-1.1-1-2-2-2.3-1.1-.3-2.2-.1-3 .7L79.9 43.7 67.7 20.5c-.5-1-1.5-1.6-2.6-1.6s-2.1.6-2.6 1.6l-6.7 12.7L39.1 2.1C38.5 1 37.3.3 36 .6c-1.3.2-2.2 1.2-2.4 2.5L17.4 106.3l43.1 24.2c2.7 1.5 6 1.5 8.7 0l43.5-24.2-12.3-76.5z"/></g></mask><path id="_Compound_Path_" d="M100.4 29.8c-.2-1.1-1-2-2-2.3-1.1-.3-2.2-.1-3 .7L79.9 43.7 67.7 20.5c-.5-1-1.5-1.6-2.6-1.6s-2.1.6-2.6 1.6l-6.7 12.7L39.1 2.1C38.5 1 37.3.3 36 .6c-1.3.2-2.2 1.2-2.4 2.5L17.4 106.3h-.1l.1.1.4.2 62-62.1L95.3 29c.8-.8 2-1.1 3-.7 1.1.3 1.8 1.2 2 2.3l12.3 75.8.1-.1-12.3-76.5zm-82.8 76.3l16-102.3c.2-1.3 1.2-2.3 2.4-2.5s2.5.4 3.1 1.5l16.7 31.1 6.7-12.7c.5-1 1.5-1.6 2.6-1.6s2.1.6 2.6 1.6l11.9 22.7-62 62.2z" mask="url(#mask-3_3_)" fill="#fff" fill-opacity=".2"/><defs><filter id="Adobe_OpacityMaskFilter_3_" filterUnits="userSpaceOnUse" x="17.4" y="105.6" width="95.3" height="26"><feColorMatrix values="1 0 0 0 0 0 1 0 0 0 0 0 1 0 0 0 0 0 1 0"/></filter></defs><mask maskUnits="userSpaceOnUse" x="17.4" y="105.6" width="95.3" height="26" id="mask-3_4_"><g filter="url(#Adobe_OpacityMaskFilter_3_)"><path id="path-2_4_" class="st2" d="M100.4 29.8c-.2-1.1-1-2-2-2.3-1.1-.3-2.2-.1-3 .7L79.9 43.7 67.7 20.5c-.5-1-1.5-1.6-2.6-1.6s-2.1.6-2.6 1.6l-6.7 12.7L39.1 2.1C38.5 1 37.3.3 36 .6c-1.3.2-2.2 1.2-2.4 2.5L17.4 106.3l43.1 24.2c2.7 1.5 6 1.5 8.7 0l43.5-24.2-12.3-76.5z"/></g></mask><path id="_Path_2" d="M69.3 129.7c-2.7 1.5-6 1.5-8.7 0l-43-24.1-.1.7 43.1 24.2c2.7 1.5 6 1.5 8.7 0l43.5-24.2-.1-.7-43.4 24.1z" opacity=".2" mask="url(#mask-3_4_)" fill="#a52714" enable-background="new"/></g><path id="_Rectangle_3" fill="none" d="M17.4.5h143v143h-143z"/></g><g id="_Path_3-Copy"><linearGradient id="SVGID_2_" gradientUnits="userSpaceOnUse" x1="261.049" y1="84.238" x2="262.093" y2="83.479" gradientTransform="matrix(95 0 0 -131 -24761.586 11064)"><stop offset="0" stop-color="#fff" stop-opacity=".1"/><stop offset=".14" stop-color="#fff" stop-opacity=".08"/><stop offset=".61" stop-color="#fff" stop-opacity=".02"/><stop offset="1" stop-color="#fff" stop-opacity="0"/></linearGradient><path d="M124.1 35.8c-.2-1.1-1-2-2-2.3-1.1-.3-2.2-.1-3 .7l-15.4 15.5-12.1-23.2c-.5-1-1.5-1.6-2.6-1.6s-2.1.6-2.6 1.6l-6.6 12.7L63.1 8.1C62.5 7 61.2 6.4 60 6.6c-1.3.2-2.2 1.2-2.4 2.5L41.4 112.2l43 24.2c2.7 1.5 6 1.5 8.7 0l43.3-24.2-12.3-76.4z" fill="url(#SVGID_2_)"/></g></g></g></g></g></svg>