<svg xmlns="http://www.w3.org/2000/svg" width="25" height="25"><g fill="none" fill-rule="evenodd"><path fill-opacity=".01" fill="#FFF" d="M.214.896h24v24h-24z"/><g fill-rule="nonzero"><path d="M10.008 2.931l-7.664 3.69a.36.36 0 00-.196.245L.254 15.16a.36.36 0 00.071.307l5.304 6.65a.36.36 0 00.282.135h8.507a.36.36 0 00.282-.136l5.303-6.649a.361.361 0 00.07-.305L18.18 6.868a.36.36 0 00-.196-.245l-7.662-3.692a.362.362 0 00-.313 0z" fill="#1667B0"/><path fill="#FFF" d="M13.399 9.754l-2.406 3.144 2.561 4.274h-1.978l-1.822-3.19-.62.757v2.433H7.458V9.754h1.686v3.253l2.186-3.253z"/><path d="M19.36 2.906l-3.08 1.122a.077.077 0 00-.043.034l-1.64 2.841a.08.08 0 00-.009.054l.57 3.23a.08.08 0 00.027.047l2.512 2.108a.08.08 0 00.051.019h3.279a.08.08 0 00.051-.019l2.513-2.108a.08.08 0 00.027-.047l.57-3.23a.08.08 0 00-.01-.054l-1.64-2.84a.077.077 0 00-.042-.035l-3.082-1.122a.082.082 0 00-.054 0z" fill="#6594CB"/><path d="M20.695 9.135h-.784V7.197s-.018-.857-1.045-.182v2.12h-.801V6.188h.51s.206-.024.23.31c0 0 .418-.37.886-.364.392.006.952.203 1.004.941v2.06z" fill="#FFF"/></g></g></svg>