<svg xmlns="http://www.w3.org/2000/svg" width="19" height="22"><g fill="none" fill-rule="evenodd"><path d="M11.193 5.798a2.025 2.025 0 11-4.05 0 2.025 2.025 0 014.05 0" fill="#E44335"/><path d="M5.465 8.864C4.589 7.988 4.15 6.85 4.15 5.798c0-1.139.438-2.277 1.314-3.066M15.726.63c1.402 1.401 2.103 3.329 2.103 5.168 0 1.84-.7 3.767-2.103 5.169M2.687 10.967C1.285 9.565.584 7.637.584 5.798c0-1.84.701-3.767 2.103-5.168M12.948 2.732c.876.876 1.314 2.015 1.314 3.066 0 1.14-.438 2.278-1.314 3.066M14.856 21.663L9.21 6.495 3.566 21.663" stroke="#3C4043" stroke-width=".844"/><path stroke="#3C4043" stroke-width=".844" stroke-linecap="round" d="M11.562 13.192H6.86M13.209 17.711H5.127"/></g></svg>