<svg xmlns="http://www.w3.org/2000/svg" viewBox="0 0 116.89 59.67"><defs><style>.cls-1{fill:#8f463f;}.cls-2{fill:#fff;}.cls-3{fill:#da6b60;}.cls-4{fill:#ea7b6e;}</style></defs><g id="Layer_2" data-name="Layer 2"><g id="Boy-Mouth_Slightly_Rounded" data-name="Boy-Mouth Slightly Rounded"><g id="Boy-Mouth_Slightly_Rounded-2" data-name="Boy-Mouth Slightly Rounded"><path class="cls-1" d="M5.92,23.11c2.62-7.93,25-12.26,106.22.66A58.45,58.45,0,0,1,87.22,50.65c-19,10.33-37.55,6.17-43.28,4.59C23.36,49.58,3,32,5.92,23.11Z"/><path class="cls-2" d="M26.33,47c.48-5,18.13-7.26,28-7.54,15.38-.44,35.33,3.29,35.64,8.71.29,5-15.84,11.36-30.59,11.46C42.88,59.72,25.84,52,26.33,47Z"/><path class="cls-2" d="M0,15.2a272.77,272.77,0,0,1,116.81,2.25l0,1.59-7.38,4c.17-1.22.35-2.77,0-2.86s-1.54,2.62-1.73,3c-2.93,6.52-31.61,5.13-48.29,5.44,0,0-44.88.85-48.26-3.67a32.82,32.82,0,0,1-1.9-2.91A25.71,25.71,0,0,1,7.87,19Z"/><g id="Closed_Lip" data-name="Closed Lip"><path class="cls-3" d="M1.22,17.21a3.13,3.13,0,0,1-1.2-2C-.63,9.57,18.94-.27,37.45.56A50.71,50.71,0,0,1,56.59,5.35,54,54,0,0,1,80,0c15.62.07,35.62,7.36,36.88,17.45a8.07,8.07,0,0,1,0,1.59C83,16.21,69.82,16.46,65.6,17.73A23.57,23.57,0,0,1,57,18.8a23.29,23.29,0,0,1-6.51-1.36C46.41,16,33.61,15.35,1.22,17.21Z"/><path class="cls-4" d="M1.22,17.21c.27,5.93,1.72,18.47,10.86,28.61C25,60.14,44.29,59.84,59.34,59.6c14.35-.22,36.1-.56,48.83-16.75,6.71-8.54,8.29-18.16,8.7-23.81l-7.61-.62a37.35,37.35,0,0,1-5.42,11.42C91.27,47.58,66.55,48,59.38,48.1c-8,.13-32.66.52-45-16.79a36.19,36.19,0,0,1-6-14.49Z"/></g></g></g></g></svg>