<svg xmlns="http://www.w3.org/2000/svg" viewBox="0 0 116.89 72.02"><defs><style>.cls-1{fill:#8f463f;}.cls-2{fill:#da5a60;}.cls-3{fill:#fff;}.cls-4{fill:#ea7b6e;}.cls-5{fill:#da6b60;}</style></defs><g id="Layer_2" data-name="Layer 2"><g id="Boy-Mouth_L_raised_tongue" data-name="Boy-Mouth &quot;L&quot; raised tongue"><g id="Boy-Mouth_L_raised_tongue-2" data-name="Boy-Mouth &quot;L&quot; raised tongue"><path class="cls-1" d="M5.31,22.4c2.63-8.84,25-13.68,106.22.74-2.15,5.25-9.08,20.4-24.91,30C67.57,64.64,49.06,60,43.34,58.24,22.76,51.92,2.37,32.3,5.31,22.4Z"/><path class="cls-2" d="M30.79,47.87C29.51,37.8,41,21.2,52.65,17.71c17.28-5.15,35.79,18.06,34.64,29.65C86,60.09,60.84,60.63,58.62,60.65,55.3,60.69,32.46,60.94,30.79,47.87Z"/><path class="cls-3" d="M43.73,59.12c-1.59-1.95-2.56-3.14-2.46-4.43.58-7.31,34-6.21,34.35.29.08,1.42-1.44,2.73-4.14,5C69.92,61.34,55.3,73.33,43.73,59.12Z"/><path class="cls-3" d="M0,15.2a272.77,272.77,0,0,1,116.81,2.25l0,1.59-7.38,4c.17-1.22.35-2.77,0-2.86s-1.54,2.62-1.73,3c-2.93,6.52-31.61,5.13-48.29,5.44,0,0-44.88.85-48.26-3.67a32.82,32.82,0,0,1-1.9-2.91A25.71,25.71,0,0,1,7.87,19Z"/><path class="cls-4" d="M.62,15.63A66.2,66.2,0,0,0,11.48,44.24C14.11,48.08,30.34,71.76,58.16,72c29.52.27,46.53-26.07,49.4-30.75a64.87,64.87,0,0,0,8.71-23.81l-7.6-1.57A51.34,51.34,0,0,1,7.81,14.41Z"/><g id="Closed_Lip" data-name="Closed Lip"><path class="cls-5" d="M1.22,17.21a3.13,3.13,0,0,1-1.2-2C-.63,9.57,18.94-.27,37.45.56A50.71,50.71,0,0,1,56.59,5.35,54,54,0,0,1,80,0c15.62.07,35.62,7.36,36.88,17.45a8.07,8.07,0,0,1,0,1.59C83,16.21,69.82,16.46,65.6,17.73A23.57,23.57,0,0,1,57,18.8a23.29,23.29,0,0,1-6.51-1.36C46.41,16,33.61,15.35,1.22,17.21Z"/></g></g></g></g></svg>
