<svg xmlns="http://www.w3.org/2000/svg" viewBox="0 0 116.81 21.49"><defs><style>.cls-1{fill:#db6b60;}.cls-2{fill:#ec7c6f;}</style></defs><g id="Layer_2" data-name="Layer 2"><g id="Boy-Mouth_Closed" data-name="Boy-Mouth Closed"><g id="Boy-Mouth_Closed-2" data-name="Boy-Mouth Closed"><path class="cls-1" d="M0,15.21C3.47,12,17.44-.19,37.44.58A48.85,48.85,0,0,1,56.58,5.36,49.71,49.71,0,0,1,79.94,0c20.81.49,34.11,14.43,36.87,17.45q-24.79.62-51.23.29C42.84,17.43,21,16.54,0,15.21Z"/><path class="cls-2" d="M0,15.21a49.47,49.47,0,0,0,5.14,2.17A52,52,0,0,0,19,20.26c12.17.93,35,1.13,37.51,1.16,3.22,0,40.43.43,48.9-1a80.25,80.25,0,0,0,8.42-2c1.31-.39,2.35-.75,3-1Z"/></g></g></g></svg>