<svg xmlns="http://www.w3.org/2000/svg" viewBox="0 0 116.89 79.82"><defs><style>.cls-1{fill:#8f463f;}.cls-2{fill:#da5a60;}.cls-3{fill:#fff;}.cls-4{fill:#da6b60;}.cls-5{fill:#ea7b6e;}</style></defs><g id="Layer_2" data-name="Layer 2"><g id="Boy-Mouth_Open_Wide" data-name="Boy-Mouth Open Wide"><g id="Boy-Mouth_Open_Wide-2" data-name="Boy-Mouth Open Wide"><path class="cls-1" d="M5.91,29.33c2.63-7.93,25-12.26,106.22.66A58.39,58.39,0,0,1,87.21,56.87C68.17,67.2,49.66,63,43.94,61.46,23.36,55.8,3,38.21,5.91,29.33Z"/><path class="cls-2" d="M35.79,59.82c-1.08-4.73,8.59-12.53,18.5-14.17,14.62-2.42,30.28,8.48,29.31,13.93-1.08,6-22.39,6.23-24.27,6.24C56.52,65.84,37.21,66,35.79,59.82Z"/><path class="cls-3" d="M0,21.39a165.75,165.75,0,0,1,116.81,2.25l.05,1.58-7.39,4c.18-1.21.35-2.76,0-2.85s-1.49,2.51-1.73,3c-2.89,6-27.73,0-48,.41-15.59.28-46.09,4.58-48.51,1.36a29.84,29.84,0,0,1-1.9-2.91,27.52,27.52,0,0,1-1.48-3.08Z"/><g id="Closed_Lip" data-name="Closed Lip"><path class="cls-4" d="M1.22,23.43a3,3,0,0,1-1.21-2c-.5-5,16.46-6.68,36.64-17C40.9,2.26,46.07-.69,51.77.71c2.29.55,3.94,1.63,7.25,1.65,3.87,0,5.7-1.43,8.5-2.07,4.9-1.11,9,1.15,13.88,3.52,22.07,10.81,34.42,11.94,35.42,19.86a8.48,8.48,0,0,1,.05,1.59L67.76,15.12a25.56,25.56,0,0,1-8.25,1.12,25.66,25.66,0,0,1-7.68-1.4Z"/><path class="cls-5" d="M1.22,23.43A66.29,66.29,0,0,0,12.07,52c2.64,3.84,18.87,27.52,46.69,27.78,29.52.27,46.53-26.07,49.4-30.75a65.24,65.24,0,0,0,8.71-23.81l-7.61-1.57A51.34,51.34,0,0,1,8.41,22.21Z"/></g></g></g></g></svg>