<svg width="24" height="24" xmlns="http://www.w3.org/2000/svg"><g id="Page-1" stroke="none" stroke-width="1" fill="none" fill-rule="evenodd"><g id="Artboard" transform="translate(-42 -38)"><g id="Carbon-Footprint" transform="translate(42 38)"><path id="Rectangle" d="M0 0h24v24H0z"/><g id="sustainability_gm_grey_24dp" transform="translate(3 1)" fill="#34A853" fill-rule="nonzero"><path d="m17.763 20.223-1.937-2.432c.715-1.903 1.497-6.084-2.422-11.002C8 .033.261 0 .261 0s-1.717 7.548 3.655 14.314c3.258 4.104 6.747 4.919 8.993 4.919.451 0 .847-.033 1.189-.077l1.937 2.431c.374.473 1.068.55 1.552.176.473-.374.55-1.067.176-1.54Zm-3.985-3.246L2.198 2.443c2.345.462 6.34 1.793 9.467 5.71 3.27 4.082 2.63 7.427 2.113 8.824Z" id="Shape"/></g></g></g></g></svg>