<svg width="24" height="24" xmlns="http://www.w3.org/2000/svg"><g fill="none" fill-rule="evenodd"><path d="M0 0h24v24H0z"/><g fill-rule="nonzero"><path d="M5.21 8.475a.715.715 0 0 0-.71.699V16.612l.003.077c.026.453.27.865.655 1.099l.027.016 3.576 2.07v2.905l.002.054a.715.715 0 0 0 .708.667.702.702 0 0 0 .331-.083l.025-.014 9.488-5.573.066-.04A1.38 1.38 0 0 0 20 16.67V9.197a.729.729 0 0 0-.094-.359.705.705 0 0 0-.95-.277l-.02.011-6.31 3.674-.054.031a.702.702 0 0 1-.674-.017l-.023-.014-6.31-3.675a.703.703 0 0 0-.355-.096Z" fill="#669DF6"/><path d="M12.745.62a.877.877 0 0 0-.853-.018l-.025.014L4.91 4.6a.727.727 0 0 0-.024 1.24l.019.013 6.956 4.054c.267.155.594.16.864.011l.026-.014 6.848-4.054a.726.726 0 0 0 .015-1.236l-.02-.011-6.85-3.984Z" fill="#185ABC"/></g></g></svg>