<svg xmlns="http://www.w3.org/2000/svg" width="24" height="24"><path d="M3.444 12.193c1.884-.531 3.851.542 4.391 2.397.54 1.855-.55 3.792-2.434 4.324a3.612 3.612 0 01-1.85.027l-.196-.053L1.49 22.2l-1.238-.676 1.863-3.319a3.476 3.476 0 01-1.105-1.688c-.54-1.855.55-3.792 2.434-4.324zm10.402 7.384v1.818h-3.692v-1.818h3.692zm3.692-3.635v1.818h-7.384v-1.818h7.384zM6.47 14.976c-.323-1.11-1.508-1.756-2.635-1.438-1.126.317-1.783 1.485-1.46 2.594.323 1.109 1.509 1.756 2.635 1.438 1.126-.318 1.783-1.486 1.46-2.594zm14.76-2.67v1.818H10.155v-1.818H21.23zM24 8.671v1.818H0V8.67h24zm0-3.636v1.818H0V5.035h24zM11.135 1.4v1.818H2.769V1.4h8.366zm10.096 0v1.818h-8.366V1.4h8.366z" fill="#4285F4" fill-rule="evenodd"/></svg>