<svg width="24" height="24" xmlns="http://www.w3.org/2000/svg"><g fill="none" fill-rule="evenodd"><path d="M7.514 6.826a5.407 5.407 0 00-.656.646l-.282-.283-1.09-1.09.655-.645 1.08 1.08.293.292zM18.55 17.86l-.656.646-1.345-1.345a5.33 5.33 0 00.655-.646l1.345 1.345zM5.326 11.509a4.225 4.225 0 00-.028.49c0 .144.01.29.028.433H3.224v-.923h2.102zm15.448 0v.923h-2.046c.018-.144.028-.289.027-.434 0-.163-.009-.327-.027-.489h2.046zM6.822 16.487c.194.239.41.458.646.656l-1.364 1.363-.655-.646 1.373-1.373zm9.973-9.972l1.062-1.061.656.646-1.345 1.342a4.822 4.822 0 00-.656-.646l.283-.28zM12.022 18.73c.158 0 .315-.009.471-.027v2.066h-.923v-2.066c.15.018.301.028.452.027zm.471-15.5v2.075a3.28 3.28 0 00-.425-.028h-.01c-.164 0-.327.01-.49.028V3.23h.925z" fill="#4285F4" fill-rule="nonzero"/><path d="M19.285 11.512a7.316 7.316 0 00-6.795-6.775c-.139 0-.277-.01-.425-.01h-.046c-.157 0-.305.01-.453.02a7.25 7.25 0 00-4.348 1.788 6.182 6.182 0 00-.646.655 7.22 7.22 0 00-1.81 4.32c-.01.157-.018.323-.018.49-.004.144.003.29.018.433a7.288 7.288 0 002.419 4.994 7.321 7.321 0 004.385 1.828c.167.009.333.018.499.018.148 0 .288-.009.425-.009a7.229 7.229 0 004.339-1.818 7.153 7.153 0 002.453-5.01 3.34 3.34 0 00.019-.434 6.747 6.747 0 00-.016-.49zM12 18.352A6.351 6.351 0 1112 5.65a6.351 6.351 0 010 12.702zm.028-11.187A4.833 4.833 0 1016.856 12a4.842 4.842 0 00-4.828-4.835z" fill="#669DF6"/><path d="M12 3.43A1.715 1.715 0 1112 0v.923a.791.791 0 100 1.582v.925z" fill="#AECBFA"/><path d="M12 3.43v-.923a.792.792 0 100-1.584V0a1.714 1.714 0 110 3.428v.002z" fill="#669DF6"/><path d="M12 24a1.714 1.714 0 110-3.428v.923a.791.791 0 100 1.582V24z" fill="#AECBFA"/><path d="M12 24v-.923a.791.791 0 100-1.582v-.923A1.714 1.714 0 1112 24z" fill="#669DF6"/><path d="M4.73 6.442a1.715 1.715 0 010-3.429v.923a.792.792 0 000 1.583v.923z" fill="#AECBFA"/><path d="M4.73 6.442v-.923a.792.792 0 000-1.583v-.923a1.715 1.715 0 010 3.429z" fill="#669DF6"/><path d="M19.274 20.986a1.714 1.714 0 110-3.428v.923a.791.791 0 100 1.581v.924z" fill="#AECBFA"/><path d="M19.274 20.986v-.924a.791.791 0 100-1.58v-.924a1.714 1.714 0 110 3.428z" fill="#669DF6"/><path d="M1.714 13.715a1.714 1.714 0 110-3.428v.923a.791.791 0 100 1.582v.923z" fill="#AECBFA"/><path d="M1.714 13.715v-.923a.791.791 0 100-1.582v-.923a1.714 1.714 0 110 3.428z" fill="#669DF6"/><path d="M22.286 13.715a1.714 1.714 0 110-3.428v.923a.791.791 0 000 1.58v.925z" fill="#AECBFA"/><path d="M22.286 13.715v-.923a.791.791 0 100-1.582v-.923a1.714 1.714 0 110 3.428z" fill="#669DF6"/><path d="M4.69 20.984a1.722 1.722 0 01-1.245-.519 1.656 1.656 0 01-.47-1.207c.028-.937.83-1.699 1.79-1.699v.923c-.462 0-.85.36-.866.803a.73.73 0 00.209.537.8.8 0 00.582.24v.922z" fill="#AECBFA"/><path d="M4.692 20.984v-.923c.461 0 .85-.36.862-.802a.73.73 0 00-.208-.537.8.8 0 00-.582-.24v-.923a1.72 1.72 0 011.245.52c.314.322.483.758.469 1.208-.028.936-.829 1.697-1.786 1.697z" fill="#669DF6"/><path d="M19.274 6.442a1.714 1.714 0 110-3.426v.923a.79.79 0 100 1.58v.923z" fill="#AECBFA"/><path d="M19.274 6.442V5.52a.79.79 0 100-1.58v-.923a1.714 1.714 0 110 3.426z" fill="#669DF6"/><path d="M12.028 7.165v9.664a4.833 4.833 0 110-9.664z" fill="#AECBFA"/><path d="M16.856 12a4.826 4.826 0 01-4.828 4.828V7.165A4.834 4.834 0 0116.856 12z" fill="#669DF6"/><path fill="#AECBFA" fill-rule="nonzero" d="M12.027 13.277h2.603v1h-2.603zm0-1.679h2.603v1h-2.603zm0-1.679h2.603v1h-2.603z"/><path fill="#FFF" fill-rule="nonzero" d="M9.422 13.277h2.603v1H9.422zm.002-1.679h2.603v1H9.424zm0-1.679h2.603v1H9.424z"/></g></svg>