<svg width="24" height="24" xmlns="http://www.w3.org/2000/svg"><g fill="none" fill-rule="evenodd"><path d="M0 0h24v24H0z"/><g transform="translate(2 .667)" fill-rule="nonzero"><path d="M19.811 13.644a.924.924 0 00-1.29-.195l-8.513 6.28v.26a.88.88 0 01.882.88.88.88 0 01-.882.878v.041c.197.003.39-.06.547-.179l9.085-6.68a.917.917 0 00.171-1.285z" fill="#669DF6"/><path d="M10.008 21.747a.88.88 0 01-.882-.878.88.88 0 01.882-.88v-.26L1.47 13.45a.926.926 0 00-1.291.195.917.917 0 00.196 1.285l9.084 6.68c.159.117.35.18.548.179v-.04z" fill="#AECBFA"/><path d="M10.008 19.07c-.997 0-1.806.806-1.806 1.799 0 .993.809 1.798 1.806 1.798s1.805-.805 1.805-1.798-.808-1.798-1.805-1.798zm0 2.677a.88.88 0 01-.882-.878.88.88 0 01.882-.88.88.88 0 01.882.88.889.889 0 01-.882.878z" fill="#4285F4"/><path d="M2.655 4.141a.933.933 0 01-.956-.944V.92c0-.328.176-.632.462-.796a.926.926 0 01.923 0 .919.919 0 01.462.796v2.278a.921.921 0 01-.89.944z" fill="#AECBFA"/><circle fill="#AECBFA" cx="2.623" cy="11.333" r="1"/><circle fill="#AECBFA" cx="2.623" cy="8.632" r="1"/><circle fill="#AECBFA" cx="2.623" cy="5.923" r="1"/><path d="M17.36 6.818a.917.917 0 01-.923-.92V3.605c0-.508.414-.92.923-.92.51 0 .924.412.924.92V5.9a.917.917 0 01-.924.919z" fill="#4285F4"/><circle fill="#4285F4" cx="17.393" cy="11.35" r="1"/><circle fill="#4285F4" cx="17.393" cy="8.6" r="1"/><circle fill="#4285F4" cx="17.393" cy=".927" r="1"/><path d="M10.008 14.97a.921.921 0 01-.923-.92v-2.294c0-.507.413-.919.923-.919s.923.412.923.92v2.294c0 .507-.413.92-.923.92z" fill="#669DF6"/><circle fill="#669DF6" cx="10.008" cy="16.76" r="1"/><circle fill="#669DF6" cx="10.008" cy="9.055" r="1"/><circle fill="#669DF6" cx="10.008" cy="6.354" r="1"/><path d="M13.7 9.552a.925.925 0 01-.923-.92V6.33c0-.508.414-.92.923-.92.51 0 .924.412.924.92v2.302a.93.93 0 01-.924.92z" fill="#4285F4"/><circle fill="#4285F4" cx="13.7" cy="3.629" r="1"/><circle fill="#4285F4" cx="13.7" cy="14.01" r="1"/><circle fill="#4285F4" cx="13.7" cy="11.301" r="1"/><circle fill="#AECBFA" cx="6.315" cy="14.01" r="1"/><circle fill="#AECBFA" cx="6.315" cy="6.354" r="1"/><circle fill="#AECBFA" cx="6.315" cy="3.629" r="1"/><path d="M6.315 12.228a.93.93 0 01-.923-.895V9.006c0-.507.413-.919.923-.919s.923.412.923.92v2.326a.921.921 0 01-.923.895z" fill="#AECBFA"/></g></g></svg>
