<svg width="24" height="24" fill="none" xmlns="http://www.w3.org/2000/svg"><path d="m14.893 20.39-1.697-1.698 3.107-3.106-3.107-3.107 1.697-1.697 4.805 4.804-4.805 4.803ZM9.107 20.39l-4.804-4.804 4.804-4.804 1.697 1.697-3.106 3.107 3.106 3.106-1.697 1.697Z" fill="#4285F4"/><path d="M19.157 5.998a1.2 1.2 0 1 0 0-2.4 1.2 1.2 0 0 0 0 2.4Z" fill="#669DF6"/><path d="M22.064 7.2H1.67v2.4h20.395V7.2Z" fill="#AECBFA"/><path d="M20.4 24H12v-2.4h8.4a1.2 1.2 0 0 0 1.2-1.2V9.6H24v10.8a3.6 3.6 0 0 1-3.6 3.6Z" fill="#4285F4"/><path d="M12 24H3.6A3.6 3.6 0 0 1 0 20.4V9.6h2.4v10.8a1.2 1.2 0 0 0 1.2 1.2H12V24Z" fill="#669DF6"/><path d="M24 9.6h-2.4v-6a1.2 1.2 0 0 0-1.2-1.2H3.6a1.2 1.2 0 0 0-1.2 1.2v6H0v-6A3.6 3.6 0 0 1 3.6 0h16.8A3.6 3.6 0 0 1 24 3.6v6Z" fill="#AECBFA"/></svg>